HIERARCHY
ROOT joint_Root
{
	OFFSET 0.0 0.0 0.0
	CHANNELS 6 Xposition Yposition Zposition Zrotation Xrotation Yrotation 
	JOINT Hips
	{
		OFFSET 4.5925 91.4895 -427.239
		CHANNELS 6 Xposition Yposition Zposition Zrotation Xrotation Yrotation 
		JOINT Spine
		{
			OFFSET 15.7357 0.0 0.0
			CHANNELS 6 Xposition Yposition Zposition Zrotation Xrotation Yrotation 
			JOINT Chest
			{
				OFFSET 8.98455 -0.406207 0.0
				CHANNELS 6 Xposition Yposition Zposition Zrotation Xrotation Yrotation 
				JOINT Neck
				{
					OFFSET 16.3773 0.0 0.0
					CHANNELS 6 Xposition Yposition Zposition Zrotation Xrotation Yrotation 
					JOINT Head
					{
						OFFSET 6.45672 0.0 0.0
						CHANNELS 6 Xposition Yposition Zposition Zrotation Xrotation Yrotation 
						End Site
						{
							OFFSET 0.0 0.0 0.0
						}
					}
				}
				JOINT Shoulder_L
				{
					OFFSET 12.9942 -0.242716 4.98039
					CHANNELS 6 Xposition Yposition Zposition Zrotation Xrotation Yrotation 
					JOINT UpperArm_L
					{
						OFFSET 5.34809 0.0 0.0
						CHANNELS 6 Xposition Yposition Zposition Zrotation Xrotation Yrotation 
						JOINT LowerArm_L
						{
							OFFSET 24.3286 1.87007e-05 0.0
							CHANNELS 6 Xposition Yposition Zposition Zrotation Xrotation Yrotation 
							JOINT Hand_L
							{
								OFFSET 22.2916 0.0 0.0
								CHANNELS 6 Xposition Yposition Zposition Zrotation Xrotation Yrotation 
								End Site
								{
									OFFSET 0.0 0.0 0.0
								}
							}
						}
					}
				}
				JOINT Shoulder_R
				{
					OFFSET 12.9945 -0.242716 -4.98039
					CHANNELS 6 Xposition Yposition Zposition Zrotation Xrotation Yrotation 
					JOINT UpperArm_R
					{
						OFFSET -5.34813 0.0 0.0
						CHANNELS 6 Xposition Yposition Zposition Zrotation Xrotation Yrotation 
						JOINT LowerArm_R
						{
							OFFSET -24.3289 0.000322201 0.0
							CHANNELS 6 Xposition Yposition Zposition Zrotation Xrotation Yrotation 
							JOINT Hand_R
							{
								OFFSET -22.2915 -0.000108084 0.0
								CHANNELS 6 Xposition Yposition Zposition Zrotation Xrotation Yrotation 
								End Site
								{
									OFFSET 0.0 0.0 0.0
								}
							}
						}
					}
				}
			}
		}
		JOINT UpperLeg_L
		{
			OFFSET -2.19248 -6.46944 0.0
			CHANNELS 6 Xposition Yposition Zposition Zrotation Xrotation Yrotation 
			JOINT LowerLeg_L
			{
				OFFSET 39.0811 0.0 -1.23785e-05
				CHANNELS 6 Xposition Yposition Zposition Zrotation Xrotation Yrotation 
				JOINT Foot_L
				{
					OFFSET 40.9854 0.0 -1.26872e-05
					CHANNELS 6 Xposition Yposition Zposition Zrotation Xrotation Yrotation 
					JOINT Toes_L
					{
						OFFSET 11.7543 0.0 0.0
						CHANNELS 6 Xposition Yposition Zposition Zrotation Xrotation Yrotation 
						End Site
						{
							OFFSET 0.0 0.0 0.0
						}
					}
				}
			}
		}
		JOINT UpperLeg_R
		{
			OFFSET -2.19251 6.46944 0.0
			CHANNELS 6 Xposition Yposition Zposition Zrotation Xrotation Yrotation 
			JOINT LowerLeg_R
			{
				OFFSET -39.0811 -0.00228153 -0.0401928
				CHANNELS 6 Xposition Yposition Zposition Zrotation Xrotation Yrotation 
				JOINT Foot_R
				{
					OFFSET -40.9854 0.0 0.0
					CHANNELS 6 Xposition Yposition Zposition Zrotation Xrotation Yrotation 
					JOINT Toes_R
					{
						OFFSET -11.7543 0.0 0.0
						CHANNELS 6 Xposition Yposition Zposition Zrotation Xrotation Yrotation 
						End Site
						{
							OFFSET 0.0 0.0 0.0
						}
					}
				}
			}
		}
	}
}
MOTION
Frames:	6
Frame Time:	0.0333333
0.000000 0.000000 0.000000 0.000000 0.000000 -0.000000 -0.678282 90.568600 -4.997660 89.359300 -2.945410 10.467200 15.735700 0.000005 -0.000001 88.915900 76.347600 -89.089100 8.984550 -0.406207 -0.000000 19.533600 -0.523234 -0.257265 16.377300 -0.000001 -0.000001 3.722190 -4.216080 2.690280 6.456720 -0.000001 -0.000000 -8.057160 -2.957600 0.199395 12.994200 -0.242716 4.980390 -90.875100 5.440880 -80.849200 5.348090 -0.000007 -0.000001 -56.210100 33.806700 -33.330900 24.328600 0.000019 0.000005 9.617820 21.354300 -24.955600 22.291600 -0.000001 0.000005 10.687500 5.216840 2.293360 12.994500 -0.242716 -4.980390 89.632800 9.804910 -87.844500 -5.348130 -0.000001 -0.000004 -56.669400 30.746500 -27.367000 -24.328900 0.000322 -0.000009 2.999010 6.323470 -25.446400 -22.291500 -0.000108 -0.000004 16.565600 5.388370 -2.563120 -2.192480 -6.469440 -0.000000 -174.795000 -11.795200 -4.343730 39.081100 -0.000007 -0.000012 -0.167698 0.254188 33.414700 40.985400 -0.000006 -0.000013 0.398050 5.499690 -68.431000 11.754300 -0.000000 0.000003 -0.000084 -0.000886 -16.611700 -2.192510 6.469440 -0.000001 175.410000 20.162500 176.771000 -39.081100 -0.002282 -0.040193 -0.146874 0.232105 32.902600 -40.985400 0.000008 0.000006 4.646590 12.364900 -69.267200 -11.754300 -0.000006 -0.000006 -0.003114 -0.041880 -18.276300
0.000000 0.000000 0.000000 0.000000 0.000000 -0.000000 -0.674027 90.571900 -4.975560 89.392500 -2.900940 10.430200 15.735700 0.000005 -0.000001 88.918500 76.352500 -89.112800 8.984550 -0.406207 -0.000000 19.523700 -0.523998 -0.299479 16.377300 -0.000001 -0.000001 3.851480 -4.215570 2.698910 6.456720 -0.000001 -0.000000 -8.130430 -2.981880 0.148462 12.994200 -0.242716 4.980390 -90.863500 5.325080 -80.775500 5.348090 -0.000007 -0.000001 -56.691600 32.788600 -33.190700 24.328600 0.000019 0.000005 10.135000 21.474400 -26.026000 22.291600 -0.000001 0.000005 10.981500 5.214290 2.358420 12.994500 -0.242716 -4.980390 89.617000 9.708640 -87.730000 -5.348130 -0.000001 -0.000004 -56.866700 30.194800 -27.247700 -24.328900 0.000322 -0.000009 3.267550 6.484760 -26.824200 -22.291500 -0.000108 -0.000004 16.916900 5.391980 -2.678790 -2.192480 -6.469440 -0.000000 -174.842000 -11.788200 -4.354060 39.081100 -0.000007 -0.000012 -0.168065 0.255088 33.379200 40.985400 -0.000006 -0.000013 0.409619 5.526500 -68.427700 11.754300 -0.000000 0.000003 -0.000084 -0.000885 -16.611600 -2.192510 6.469440 -0.000001 175.378000 20.179200 176.752000 -39.081100 -0.002282 -0.040193 -0.145199 0.229539 32.900000 -40.985400 0.000008 0.000006 4.627050 12.344500 -69.279000 -11.754300 -0.000006 -0.000006 -0.003269 -0.043609 -18.346700
0.000000 0.000000 0.000000 0.000000 0.000000 -0.000000 -0.668075 90.575100 -4.982220 89.401800 -2.854970 10.354900 15.735700 0.000005 -0.000001 88.877100 76.372800 -89.082600 8.984550 -0.406207 -0.000000 19.482700 -0.543629 -0.318718 16.377300 -0.000001 -0.000001 4.018120 -4.270790 2.726070 6.456720 -0.000001 -0.000000 -8.231960 -3.037490 0.031441 12.994200 -0.242716 4.980390 -90.853600 5.215320 -80.692000 5.348090 -0.000007 -0.000001 -56.760200 31.876100 -33.218600 24.328600 0.000019 0.000005 11.003500 21.802700 -27.632600 22.291600 -0.000001 0.000005 11.201500 5.210680 2.449940 12.994500 -0.242716 -4.980390 89.601600 9.624840 -87.618300 -5.348130 -0.000001 -0.000004 -56.958900 29.519000 -27.195200 -24.328900 0.000322 -0.000009 3.594450 6.657650 -28.455600 -22.291500 -0.000108 -0.000004 17.097600 5.393730 -2.734800 -2.192480 -6.469440 -0.000000 -174.882000 -11.729900 -4.442810 39.081100 -0.000007 -0.000012 -0.170956 0.259628 33.363800 40.985400 -0.000006 -0.000013 0.407845 5.517320 -68.406400 11.754300 -0.000000 0.000003 -0.000086 -0.000905 -16.612400 -2.192510 6.469440 -0.000001 175.406000 20.192300 176.664000 -39.081100 -0.002282 -0.040193 -0.141525 0.223792 32.907800 -40.985400 0.000008 0.000006 4.698900 12.269200 -69.296200 -11.754300 -0.000006 -0.000006 -0.003166 -0.042467 -18.300200
0.000000 0.000000 0.000000 0.000000 0.000000 -0.000000 -0.664228 90.583400 -4.965940 89.411700 -2.824800 10.331500 15.735700 0.000005 -0.000001 88.885600 76.382900 -89.097400 8.984550 -0.406207 -0.000000 19.462500 -0.539918 -0.332111 16.377300 -0.000001 -0.000001 4.175790 -4.381970 2.760380 6.456720 -0.000001 -0.000000 -8.304970 -3.192060 -0.102759 12.994200 -0.242716 4.980390 -90.847700 5.131290 -80.606000 5.348090 -0.000007 -0.000001 -56.262900 31.233900 -33.565400 24.328600 0.000019 0.000005 12.569900 22.905400 -29.806500 22.291600 -0.000001 0.000005 11.651100 5.207890 2.520480 12.994500 -0.242716 -4.980390 89.584600 9.539280 -87.495000 -5.348130 -0.000001 -0.000004 -57.015100 28.658400 -27.142700 -24.328900 0.000322 -0.000009 4.126300 7.070780 -30.378800 -22.291500 -0.000108 -0.000004 17.457200 5.398050 -2.873910 -2.192480 -6.469440 -0.000000 -174.903000 -11.729200 -4.439810 39.081100 -0.000007 -0.000012 -0.169341 0.257625 33.317800 40.985400 -0.000006 -0.000013 0.412037 5.521460 -68.389500 11.754300 -0.000000 0.000003 -0.000084 -0.000890 -16.611800 -2.192510 6.469440 -0.000001 175.375000 20.282000 176.680000 -39.081100 -0.002282 -0.040193 -0.141990 0.224841 32.869600 -40.985400 0.000008 0.000006 4.716870 12.335200 -69.295900 -11.754300 -0.000006 -0.000006 -0.003217 -0.043029 -18.323100
0.000000 0.000000 0.000000 0.000000 0.000000 -0.000000 -0.664514 90.586300 -4.980810 89.387300 -2.728000 10.276600 15.735700 0.000005 -0.000001 88.832900 76.404500 -89.032400 8.984550 -0.406207 -0.000000 19.418900 -0.562298 -0.303881 16.377300 -0.000001 -0.000001 4.317760 -4.494570 2.803260 6.456720 -0.000001 -0.000000 -8.334250 -3.351000 -0.238284 12.994200 -0.242716 4.980390 -90.835200 5.031800 -80.563300 5.348090 -0.000007 -0.000001 -55.450400 30.634800 -34.093700 24.328600 0.000019 0.000005 14.248900 23.686600 -32.297700 22.291600 -0.000001 0.000005 12.174200 5.202540 2.654790 12.994500 -0.242716 -4.980390 89.574800 9.413880 -87.402400 -5.348130 -0.000001 -0.000004 -56.999200 27.673200 -27.167200 -24.328900 0.000322 -0.000009 4.700360 7.411880 -32.517500 -22.291500 -0.000108 -0.000004 17.993800 5.399030 -2.906350 -2.192480 -6.469440 -0.000000 -174.911000 -11.633500 -4.522520 39.081100 -0.000007 -0.000012 -0.168402 0.256156 33.322100 40.985400 -0.000006 -0.000013 0.414378 5.529260 -68.375300 11.754300 -0.000000 0.000003 -0.000084 -0.000883 -16.611600 -2.192510 6.469440 -0.000001 175.390000 20.436400 176.644000 -39.081100 -0.002282 -0.040193 -0.142189 0.225357 32.845300 -40.985400 0.000008 0.000006 4.740080 12.375000 -69.287000 -11.754300 -0.000006 -0.000006 -0.003221 -0.043078 -18.325100
0.000000 0.000000 0.000000 0.000000 0.000000 -0.000000 -0.655133 90.595200 -4.981240 89.407100 -2.754320 10.272000 15.735700 0.000005 -0.000001 88.881400 76.409100 -89.095800 8.984550 -0.406207 -0.000000 19.410300 -0.541096 -0.337396 16.377300 -0.000001 -0.000001 4.438830 -4.557990 2.834450 6.456720 -0.000001 -0.000000 -8.372570 -3.462920 -0.289935 12.994200 -0.242716 4.980390 -90.812400 4.897160 -80.569100 5.348090 -0.000007 -0.000001 -54.836100 29.659100 -34.516300 24.328600 0.000019 0.000005 15.700000 23.829600 -34.826700 22.291600 -0.000001 0.000005 12.693000 5.195320 2.836120 12.994500 -0.242716 -4.980390 89.562800 9.268970 -87.287500 -5.348130 -0.000001 -0.000004 -56.771900 26.739200 -27.473900 -24.328900 0.000322 -0.000009 5.170730 7.523070 -34.656500 -22.291500 -0.000108 -0.000004 18.561000 5.401070 -2.972070 -2.192480 -6.469440 -0.000000 -174.937000 -11.667800 -4.482260 39.081100 -0.000007 -0.000012 -0.166892 0.254393 33.266700 40.985400 -0.000006 -0.000013 0.426580 5.537610 -68.365500 11.754300 -0.000000 0.000003 -0.000084 -0.000889 -16.611800 -2.192510 6.469440 -0.000001 175.362000 20.435900 176.650000 -39.081100 -0.002282 -0.040193 -0.141295 0.224253 32.812700 -40.985400 0.000008 0.000006 4.738870 12.421800 -69.266400 -11.754300 -0.000006 -0.000006 -0.003208 -0.042933 -18.319200
